<svg width="362px" height="826px" viewBox="0 0 362 826" version="1.1" xmlns="http://www.w3.org/2000/svg" xmlns:xlink="http://www.w3.org/1999/xlink">
    <g id="Page-1" stroke="none" stroke-width="1" fill="none" fill-rule="evenodd" opacity="0.04">
        <g id="Website-Final-2.0" transform="translate(0.000000, -1093.000000)" fill="#010202">
            <g id="Background" transform="translate(-1091.000000, 0.000000)">
                <g id="Elements" transform="translate(621.000000, 1090.000000)">
                    <path d="M416,606.533271 C310.783271,606.533271 225.466729,521.220771 225.466729,416 C225.466729,310.779229 310.783271,225.466729 416,225.466729 C521.216729,225.466729 606.533271,310.779229 606.533271,416 C606.533271,521.220771 521.216729,606.533271 416,606.533271 M416,0 C186.260572,0 0,186.264614 0,416 C0,645.731343 186.260572,832 416,832 C645.731343,832 832,645.731343 832,416 C832,186.264614 645.731343,0 416,0" id="1"></path>
                </g>
            </g>
        </g>
    </g>
</svg>