<?xml version="1.0" encoding="UTF-8"?>
<svg width="302px" height="977px" viewBox="0 0 302 977" version="1.1" xmlns="http://www.w3.org/2000/svg" xmlns:xlink="http://www.w3.org/1999/xlink">
    <!-- Generator: Sketch 51.1 (57501) - http://www.bohemiancoding.com/sketch -->
    <title>2</title>
    <desc>Created with Sketch.</desc>
    <defs></defs>
    <g id="Page-1" stroke="none" stroke-width="1" fill="none" fill-rule="evenodd" opacity="0.04">
        <g id="Website-Final-2.0" transform="translate(0.000000, -2537.000000)" fill="#000000">
            <g id="Background" transform="translate(-1091.000000, 0.000000)">
                <g id="Elements" transform="translate(0.000000, 2121.000000)">
                    <path d="M1422.70128,782.511107 L1026.11708,782.511107 L1025.76736,385.90447 C1026.11708,318.938167 971.210798,264.603749 904.239127,264.949828 C837.267455,264.949828 783.410341,318.938167 783.060619,385.90447 L783.410341,782.511107 L386.826135,782.684147 C318.98016,782.511107 264.948184,836.845525 264.948184,905.023105 C264.948184,971.470291 318.98016,1025.97775 386.476413,1025.97775 L783.060619,1025.97775 L783.410341,1422.23831 C783.410341,1489.89677 837.267455,1544.23118 904.239127,1544.23118 C971.210798,1544.23118 1026.11708,1489.72373 1026.11708,1422.23831 L1026.11708,1025.97775 L1422.70128,1025.97775 C1490.02268,1025.97775 1544.57923,971.470291 1544.22951,905.023105 C1544.57923,836.845525 1490.02268,782.338068 1422.70128,782.511107" id="2" transform="translate(904.589684, 904.589684) rotate(-315.000000) translate(-904.589684, -904.589684) "></path>
                </g>
            </g>
        </g>
    </g>
</svg>