<?xml version="1.0" encoding="UTF-8"?>
<svg width="415px" height="710px" viewBox="0 0 415 710" version="1.1" xmlns="http://www.w3.org/2000/svg" xmlns:xlink="http://www.w3.org/1999/xlink">
    <!-- Generator: Sketch 51.1 (57501) - http://www.bohemiancoding.com/sketch -->
    <title>2</title>
    <desc>Created with Sketch.</desc>
    <defs></defs>
    <g id="Page-1" stroke="none" stroke-width="1" fill="none" fill-rule="evenodd" opacity="0.04">
        <g id="Website-Final-2.0" transform="translate(-1025.000000, -1608.000000)" fill="#000000">
            <g id="Background" transform="translate(-1091.000000, 0.000000)">
                <g id="Elements" transform="translate(621.000000, 1090.000000)">
                    <path d="M2303.26504,710.739383 L2008.94707,710.739383 L2008.68753,414.56434 C2008.94707,364.555726 1968.19934,323.980262 1918.49749,324.238705 C1868.79565,324.238705 1828.82654,364.555726 1828.567,414.56434 L1828.82654,710.739383 L1534.50856,710.868605 C1484.15787,710.739383 1444.05899,751.314847 1444.05899,802.228009 C1444.05899,851.848959 1484.15787,892.553644 1534.24902,892.553644 L1828.567,892.553644 L1828.82654,1188.47025 C1828.82654,1238.99574 1868.79565,1279.57121 1918.49749,1279.57121 C1968.19934,1279.57121 2008.94707,1238.86652 2008.94707,1188.47025 L2008.94707,892.553644 L2303.26504,892.553644 C2353.22643,892.553644 2393.71462,851.848959 2393.45508,802.228009 C2393.71462,751.314847 2353.22643,710.610162 2303.26504,710.739383" id="2" transform="translate(1918.757655, 801.904342) rotate(-330.000000) translate(-1918.757655, -801.904342) "></path>
                </g>
            </g>
        </g>
    </g>
</svg>