
<svg width="917px" height="648px" viewBox="0 0 917 648" version="1.1" xmlns="http://www.w3.org/2000/svg" xmlns:xlink="http://www.w3.org/1999/xlink">

    <defs>
        <filter x="-1.7%" y="-1.9%" width="103.8%" height="105.3%" filterUnits="objectBoundingBox" id="filter-1">
            <feOffset dx="2" dy="5" in="SourceAlpha" result="shadowOffsetOuter1"></feOffset>
            <feGaussianBlur stdDeviation="5" in="shadowOffsetOuter1" result="shadowBlurOuter1"></feGaussianBlur>
            <feColorMatrix values="0 0 0 0 0   0 0 0 0 0   0 0 0 0 0  0 0 0 0.2 0" type="matrix" in="shadowBlurOuter1" result="shadowMatrixOuter1"></feColorMatrix>
            <feMerge>
                <feMergeNode in="shadowMatrixOuter1"></feMergeNode>
                <feMergeNode in="SourceGraphic"></feMergeNode>
            </feMerge>
        </filter>
    </defs>
    <g id="Page-1" stroke="none" stroke-width="1" fill="none" fill-rule="evenodd">
        <g id="Website-Final-2.0" transform="translate(-261.000000, -218.000000)">
            <g id="Header" transform="translate(-166.000000, -41.000000)">
                <g id="Header-Section" transform="translate(0.000000, 57.000000)">
                    <g id="Emojis" filter="url(#filter-1)" transform="translate(418.000000, 189.000000)">
                        <g id="Emoji-2" transform="translate(864.935245, 526.935245) rotate(-345.000000) translate(-864.935245, -526.935245) translate(815.935245, 477.935245)">
                            <path d="M0,49 C0,21.9379745 21.9390935,0 48.9992791,0 C76.0609065,0 98,21.9379745 98,49 C98,76.0620255 76.0609065,98 48.9992791,98 C21.9390935,98 0,76.0620255 0,49" id="Fill-1" fill="#FFE455"></path>
                            <path d="M36,70 C36,59.5071208 42.0436681,51 49.4992722,51 C56.9548763,51 63,59.5071208 63,70 C63,80.4928792 56.9548763,89 49.4992722,89 C42.0436681,89 36,80.4928792 36,70" id="Fill-4" fill="#181818"></path>
                            <path d="M19.1006531,35.1689961 C19.7515467,29.6665184 23.3679461,25.5768589 27.1784461,26.0350304 C30.9889461,26.4946751 33.5487382,31.3283109 32.8993041,36.8307886 C32.2484105,42.3347395 28.6320111,46.424399 24.8215111,45.9647543 C21.0124704,45.5065828 18.451219,40.6714738 19.1006531,35.1689961" id="Fill-6" fill="#181818"></path>
                            <path d="M34.3457456,14 C33.8050601,14 33.273287,13.745859 32.9568968,13.2815902 C32.9034224,13.2049219 31.4239643,11.1646947 28.5512011,11.1646947 C25.4348324,11.1646947 22.8338975,13.5286323 22.8071603,13.5527686 C22.1506136,14.1575958 21.1034067,14.143398 20.4676556,13.517274 C19.8333899,12.89115 19.8452731,11.8958826 20.4973636,11.2853762 C20.639962,11.1519167 24.0652939,8 28.5512011,8 C33.2569476,8 35.6321018,11.4088973 35.7316236,11.5537151 C36.2307179,12.2863228 36.0138496,13.2659726 35.2458979,13.7430194 C34.9681281,13.9162328 34.6547088,14 34.3457456,14" id="Fill-8" fill="#181818"></path>
                            <path d="M77.8989293,35.1689961 C77.2494465,29.6665184 73.6313164,25.5768589 69.8219903,26.0350304 C66.0112046,26.4946751 63.4512207,31.3283109 64.1007035,36.8307886 C64.7516458,42.3347395 68.3683164,46.424399 72.1776426,45.9647543 C75.9884282,45.5065828 78.5498717,40.6714738 77.8989293,35.1689961" id="Fill-10" fill="#181818"></path>
                            <path d="M63.6542928,14 C64.1949909,14 64.7252909,13.745859 65.0431738,13.2815902 C65.0966495,13.2049219 66.576142,11.1646947 69.4489719,11.1646947 C72.565413,11.1646947 75.1664084,13.5286323 75.1931462,13.5527686 C75.8497081,14.1575958 76.8969393,14.143398 77.5312197,13.517274 C78.1669856,12.89115 78.1551021,11.8958826 77.501511,11.2853762 C77.3603948,11.1519167 73.9334979,8 69.4489719,8 C64.7431161,8 62.3679067,11.4088973 62.2683826,11.5537151 C61.7692767,12.2863228 61.9861501,13.2659726 62.7541196,13.7430194 C63.0318958,13.9162328 63.343837,14 63.6542928,14" id="Fill-12" fill="#181818"></path>
                        </g>
                        <g id="Emoji-" transform="translate(148.216334, 157.716334) rotate(-30.000000) translate(-148.216334, -157.716334) translate(95.716334, 105.216334)">
                            <path d="M0,52.3049636 C0,23.4176522 23.4176522,0 52.3049636,0 C81.1922751,0 104.609927,23.4176522 104.609927,52.3049636 C104.609927,81.1922751 81.1922751,104.609927 52.3049636,104.609927 C23.4176522,104.609927 0,81.1922751 0,52.3049636" id="Fill-1" fill="#FFE455"></path>
                            <path d="M52.7234033,85.3617006 C71.2107778,85.3617006 86.19858,70.374751 86.19858,51.8865239 L19.2482266,51.8865239 C19.2482266,70.374751 34.2360288,85.3617006 52.7234033,85.3617006" id="Fill-4" fill="#181818"></path>
                            <path d="M52.3049636,61.9290769 C41.7958198,61.9290769 31.7680576,63.7042991 22.5957443,66.9200577 C28.0626454,77.8551792 39.3091923,85.3617006 52.3049636,85.3617006 C65.302268,85.3617006 76.5472819,77.8551792 82.014183,66.9200577 C72.8418697,63.7042991 62.8141075,61.9290769 52.3049636,61.9290769" id="Fill-6" fill="#FF3F60"></path>
                            <path d="M83.0555722,37.5592662 L73.9627437,34.4040704 L82.5874924,30.1226748 C83.6610562,29.5901782 84.1095069,28.263527 83.5840495,27.1755812 C83.0570822,26.0876355 81.7494785,25.6331771 80.6759147,26.1672039 L67.3386589,32.7866883 C67.3371489,32.7882185 67.335639,32.7882185 67.3341291,32.7897487 L67.3295993,32.7912788 C67.3054403,32.8035201 67.2858112,32.8218821 67.2631621,32.8341234 C67.1619965,32.8892092 67.0638507,32.9473554 66.9717447,33.0177429 C66.9098373,33.065178 66.8569896,33.121794 66.801122,33.1753497 C66.754314,33.2212546 66.7044862,33.2610388 66.662208,33.310004 C66.6063404,33.3742709 66.5625523,33.4446583 66.5142344,33.5119855 C66.4810158,33.5624809 66.4432674,33.6068556 66.4130687,33.6588811 C66.058234,34.2755368 66.0023664,35.0543896 66.3330422,35.7383724 C66.6048305,36.2999422 67.0864997,36.6886035 67.6346061,36.8630421 L81.6483128,41.7258996 C82.7777442,42.1176213 84.0204207,41.5024958 84.408474,40.3564038 C84.7950173,39.2103119 84.1865135,37.9509879 83.0555722,37.5592662" id="Fill-8" fill="#181818"></path>
                            <path d="M21.554355,37.5592662 L30.6471835,34.4040704 L22.0224349,30.1226748 C20.9488711,29.5901782 20.5004204,28.263527 21.0258778,27.1755812 C21.5528451,26.0876355 22.8604488,25.6331771 23.9340126,26.1672039 L37.2712684,32.7866883 C37.2727783,32.7882185 37.2742882,32.7882185 37.2757982,32.7897487 L37.2818379,32.7912788 C37.3044869,32.8035201 37.3241161,32.8218821 37.3467651,32.8341234 C37.4479308,32.8892092 37.5460765,32.9473554 37.6381826,33.0177429 C37.7000899,33.065178 37.7529376,33.121794 37.8088052,33.1753497 C37.8541033,33.2212546 37.9054411,33.2610388 37.9477192,33.310004 C38.0035868,33.3742709 38.0473749,33.4446583 38.0956929,33.5119855 C38.1289114,33.5624809 38.1666598,33.6068556 38.1968585,33.6588811 C38.5516932,34.2755368 38.6075608,35.0543896 38.2768851,35.7383724 C38.0050968,36.2999422 37.5249374,36.6886035 36.9753211,36.8630421 L22.9616144,41.7258996 C21.8306731,42.1176213 20.5895066,41.5024958 20.2014533,40.3564038 C19.8149099,39.2103119 20.4234137,37.9509879 21.554355,37.5592662" id="Fill-10" fill="#181818"></path>
                        </g>
                        <g id="Like-2-(Blue)" transform="translate(630.872320, 586.872320) rotate(-15.000000) translate(-630.872320, -586.872320) translate(571.372320, 527.372320)">
                            <path d="M114.967527,79.8878886 C103.611031,110.622312 69.4906595,126.327213 38.7656718,114.961398 C8.04068404,103.600208 -7.65949787,69.4935105 3.69237202,38.7637135 C15.0534936,8.03854243 49.1692396,-7.6617332 79.8942273,3.69483034 C110.623841,15.046768 126.319397,49.1627175 114.967527,79.8878886" id="Fill-1" fill="#036DC4"></path>
                            <path d="M43.2904243,46.5565477 L33.7366006,42.9857482 C31.9571027,42.3276008 29.9788557,43.2471401 29.3271435,45.0395414 L19.52835,71.7948656 C18.8720157,73.5825993 19.7964302,75.5850476 21.5620619,76.243195 L31.1205076,79.8139946 C32.8907614,80.4721419 34.8782525,79.5526027 35.5299647,77.7602014 L45.3241361,51.0095448 C45.9712263,49.2218112 45.060678,47.2193628 43.2904243,46.5565477" id="Fill-4" fill="#FFFFFF"></path>
                            <path d="M85.681899,65.8557707 L85.1113226,65.6451416 C87.9178161,66.6889261 91.0675832,65.2238832 92.1066816,62.3967717 C93.1504189,59.5556182 91.6938256,56.3821387 88.887332,55.3289929 L72.4983378,49.2207469 C75.6944932,46.7587259 80.3147701,42.6584781 81.8455847,38.4739786 C84.2763328,31.8461807 82.031138,26.8238451 79.8323315,25.5273056 C77.6474415,24.230766 75.4579127,24.8532922 74.0523466,26.599174 C72.6375027,28.3450558 72.4519494,32.5763618 71.4870723,33.7652465 C70.0119237,35.581338 65.3777303,37.018297 58.1504297,41.5351225 C51.6885363,45.5745219 49.8747529,52.4972007 49.8747529,52.4972007 L46.5162384,61.647868 L43.1623627,70.8032159 L41.6037151,75.0626058 C40.9542786,76.8318909 41.8588508,78.8024438 43.6076906,79.4530539 L74.0523466,90.8176678 C76.0934327,91.5806134 78.3664605,90.5181063 79.1179514,88.4586211 C79.874081,86.4038165 78.8210661,84.1056182 76.7892576,83.3520338 L77.304168,83.5439404 C79.8044985,84.4660281 82.5970755,83.1694886 83.5202032,80.6606611 C84.4433308,78.1377917 83.1630131,75.3153608 80.6626825,74.3885925 L82.3373009,75.0111187 C84.8283538,75.9425677 87.6255697,74.6413475 88.5440585,72.1231587 C89.4625472,69.6096506 88.1822295,66.7872197 85.681899,65.8557707" id="Fill-6" fill="#FFFFFF"></path>
                        </g>
                        <g id="Like-(Blue)" transform="translate(327.811183, 60.811183) rotate(-45.000000) translate(-327.811183, -60.811183) translate(284.811183, 17.811183)">
                            <path d="M83.3235451,57.899324 C75.0928428,80.1743188 50.3638571,91.5565596 28.0957004,83.3191029 C5.8275438,75.0849988 -5.55127637,50.3659234 2.67607328,28.0942812 C10.9101282,5.82599165 35.6357613,-5.55289644 57.9039179,2.67785496 C80.1754272,10.9052537 91.5508947,35.6310344 83.3235451,57.899324" id="Fill-1" fill="#036DC4"></path>
                            <path d="M31.3750475,33.742194 L24.4508448,31.1542313 C23.1611409,30.6772342 21.7273921,31.3436769 21.255059,32.6427327 L14.1533126,52.0338471 C13.6776296,53.32952 14.3476057,54.7808089 15.62726,55.257806 L22.5548125,57.8457687 C23.8378167,58.3227658 25.2782653,57.6563231 25.7505984,56.3572673 L32.8489948,36.9695358 C33.3179781,35.673863 32.6580517,34.2225741 31.3750475,33.742194" id="Fill-4" fill="#FFFFFF"></path>
                            <path d="M62.0985748,47.7294452 L61.6850454,47.5767902 C63.7190719,48.3332806 66.0018883,47.2714802 66.7549824,45.2225107 C67.5114385,43.1633642 66.455762,40.863362 64.4217355,40.100087 L52.5436936,35.6730916 C54.8601303,33.8887242 58.2087094,30.9170399 59.3181783,27.8842937 C61.0798806,23.0807493 59.4526594,19.4407754 57.8590585,18.501099 C56.2755438,17.5614226 54.6886669,18.0126029 53.6699727,19.2779434 C52.6445544,20.5432838 52.5100734,23.6099534 51.8107717,24.4716061 C50.7416471,25.7878315 47.3829819,26.8292779 42.1449437,30.1028799 C37.4616398,33.0304638 36.1470872,38.0477251 36.1470872,38.0477251 L33.7129796,44.6797373 L31.2822339,51.3151418 L30.1525928,54.4021654 C29.681909,55.6844675 30.3375043,57.11264 31.6049885,57.5841743 L53.6699727,65.8207603 C55.1492647,66.3737107 56.796658,65.6036509 57.3413064,64.1110242 C57.8893168,62.6217897 57.1261366,60.9561539 55.6535687,60.4099882 L56.0267537,60.5490739 C57.8388864,61.2173636 59.8628267,60.2776872 60.5318701,58.4593964 C61.2009135,56.6309286 60.272994,54.5853514 58.4608614,53.9136694 L59.6745532,54.3648497 C61.4799618,55.0399241 63.5072642,54.0968554 64.1729455,52.2717799 C64.8386269,50.4500968 63.9107074,48.4045196 62.0985748,47.7294452" id="Fill-6" fill="#FFFFFF"></path>
                        </g>
                        <g id="Like-2-(White)" transform="translate(854.935245, 149.935245) rotate(-15.000000) translate(-854.935245, -149.935245) translate(805.935245, 100.935245)">
                            <path d="M94.9839033,32.1127358 C104.310381,57.5090844 91.283301,85.6552797 65.888892,94.984367 C40.4914842,104.310456 12.3441149,91.2809203 3.01763738,65.8905692 C-6.31183904,40.4912218 6.71524086,12.3420278 32.1126487,3.01593923 C57.5070577,-6.31014934 85.6604246,6.71638724 94.9839033,32.1127358" id="Fill-1" fill="#FFFFFF"></path>
                            <path d="M31.9331597,49.1769051 L23.889673,52.1279698 C22.4011551,52.6736729 21.629444,54.3412683 22.1754373,55.8320438 L30.3622853,78.1083142 C30.9082785,79.5990896 32.5767606,80.3703906 34.0683287,79.8246875 L42.1087651,76.8736228 C43.6003332,76.3218225 44.3720443,74.6572757 43.8230008,73.1695489 L35.639203,50.8902299 C35.0901596,49.3994544 33.4216775,48.6281534 31.9331597,49.1769051" id="Fill-4" fill="#036DC4"></path>
                            <path d="M69.9228567,37.9369802 L69.4509065,38.1136631 C71.7715789,37.2601947 72.9739999,34.6728377 72.120281,32.3639809 C71.2695682,30.0491349 68.6693329,28.8512844 66.3516665,29.6987636 L52.8094004,34.6548699 C53.5128166,31.4236683 54.2372753,26.4136587 52.9807454,23.0027796 C50.9847266,17.5944847 46.9055135,15.677924 44.8433615,16.0432684 C42.7782035,16.4116074 41.7351033,17.9598291 41.7771881,19.795535 C41.8162667,21.6312408 43.9475579,24.3593452 43.9716063,25.6051097 C44.0076789,27.5186758 41.8583515,30.8876302 39.7180422,37.5446841 C37.8001807,43.4920117 40.3312769,48.7625537 40.3312769,48.7625537 L43.0848209,56.2311513 L45.8383649,63.6997489 L47.1189432,67.1735152 C47.6480084,68.6109358 49.2652646,69.3595923 50.7111758,68.8295435 L75.8688284,59.6240627 C77.5492117,59.0101644 78.4179608,57.1355284 77.8017201,55.4615324 C77.1854793,53.7845417 75.3036905,52.9161002 73.6203012,53.5329931 L74.0531727,53.374278 C76.1123186,52.6196322 77.1794672,50.3257485 76.4249481,48.271435 C75.6674229,46.2201161 73.3587746,45.1540292 71.2996287,45.908675 L72.6764007,45.4025832 C74.7385527,44.6479374 75.8057013,42.3570484 75.0481761,40.2997402 C74.2906509,38.2484213 71.9880147,37.185329 69.9228567,37.9369802" id="Fill-6" fill="#036DC4"></path>
                        </g>
                        <g id="Like-(White)" transform="translate(173.000000, 515.000000)">
                            <path d="M105.595607,35.7424815 C115.964035,63.9724815 101.481575,95.2591481 73.2501115,105.629148 C45.0153145,115.995815 13.7233315,101.512481 3.35490331,73.2891481 C-7.01685879,45.0558148 7.4656017,13.7658148 35.7003986,3.39914815 C63.9318617,-6.96751852 95.2305125,7.51248148 105.595607,35.7424815" id="Fill-1" fill="#FFFFFF"></path>
                            <path d="M35.8361742,55.194025 L27.0614614,58.4306766 C25.4376238,59.0291896 24.5957571,60.8581653 25.1913861,62.4932093 L34.1224931,86.9252478 C34.718122,88.5602918 36.5382843,89.4062349 38.1654495,88.8077218 L46.9368347,85.5710702 C48.5639999,84.9658699 49.4058665,83.1402379 48.80691,81.5085375 L39.8791306,57.0731553 C39.2801741,55.4381113 37.4600118,54.5921683 35.8361742,55.194025" id="Fill-4" fill="#036DC4"></path>
                            <path d="M77.0944318,42.4204119 L76.5740764,42.6170967 C79.1327665,41.6670091 80.4585127,38.7867438 79.5172329,36.216507 C78.5792675,33.639603 75.7123414,32.3061468 73.1569656,33.2495671 L58.2257491,38.766742 C59.0013107,35.169744 59.8000727,29.5925635 58.414668,25.7955471 C56.2139293,19.7749925 51.7163354,17.6414626 49.4426806,18.0481667 C47.1657116,18.4582045 46.0156267,20.1816966 46.0620279,22.2252182 C46.1051146,24.2687397 48.4549997,27.3056862 48.4815147,28.6924806 C48.521287,30.8226768 46.1515157,34.5730223 43.7916875,41.983705 C41.6771223,48.6043149 44.4678181,54.471522 44.4678181,54.471522 L47.5037768,62.7856213 L50.5397356,71.0997205 L51.9516553,74.9667434 C52.5349836,76.5668908 54.3181123,77.4003009 55.912322,76.8102465 L83.6502467,66.5626359 C85.502977,65.8792396 86.4608286,63.7923807 85.7813837,61.9288757 C85.1019387,60.062037 83.027146,59.0952813 81.1711013,59.7820112 L81.6483699,59.6053283 C83.9187103,58.7652509 85.09531,56.2116823 84.2634043,53.924805 C83.4281842,51.6412613 80.8827515,50.4544853 78.6124111,51.2945627 L80.1303905,50.7311775 C82.4040452,49.8911001 83.580645,47.3408652 82.7454249,45.0506542 C81.9102048,42.7671105 79.3714008,41.5836681 77.0944318,42.4204119" id="Fill-6" fill="#036DC4"></path>
                        </g>
                        <g id="Heart-2" transform="translate(57.500000, 466.500000) rotate(-45.000000) translate(-57.500000, -466.500000) translate(17.000000, 426.000000)">
                            <path d="M78.2840456,52.8508784 C71.3788276,73.8039375 48.7925841,85.1912027 27.8395249,78.2859848 C6.89055896,71.3807668 -4.50079945,48.7945233 2.40441853,27.8414641 C9.30963651,6.88840493 31.89588,-4.50295348 52.8530324,2.40635769 C73.8019984,9.31157567 85.1933568,31.8978192 78.2840456,52.8508784" id="Fill-1" fill="#FF3C6E"></path>
                            <path d="M63.6383514,42.6781341 C66.0942677,35.2367077 62.1034037,28.0245002 56.2460433,26.0966059 C51.3260244,24.471608 45.8370514,26.309452 43.0700524,30.4190186 C43.2828985,25.4662541 39.9633183,20.7304288 35.0392061,19.1054309 C29.185939,17.1775366 21.6913011,20.5994466 19.2353848,28.0449662 C15.5187648,39.3258083 28.5637735,57.9375607 32.3868165,60.6922801 C32.460494,60.7495848 32.5300783,60.8027963 32.6160354,60.8478215 C32.7388312,60.9255921 32.8534406,60.9828969 32.9475841,61.0156424 C32.9598637,61.0156424 32.9680501,61.0156424 32.9803297,61.0197356 C32.9926092,61.0238288 33.0007956,61.027922 33.008982,61.0361084 C33.1072187,61.0688539 33.2341077,61.0893199 33.3773695,61.0975063 C33.4715129,61.1097859 33.5615632,61.1097859 33.6516134,61.1097859 C38.3669727,61.1670906 59.9217314,53.9548831 63.6383514,42.6781341" id="Fill-4" fill="#FDFDFD"></path>
                        </g>
                        <g id="Heart" transform="translate(634.000000, 28.000000)">
                            <path d="M78.2840456,52.8508784 C71.3788276,73.8039375 48.7925841,85.1912027 27.8395249,78.2859848 C6.89055896,71.3807668 -4.50079945,48.7945233 2.40441853,27.8414641 C9.30963651,6.88840493 31.89588,-4.50295348 52.8530324,2.40635769 C73.8019984,9.31157567 85.1933568,31.8978192 78.2840456,52.8508784" id="Fill-1" fill="#FF3C6E"></path>
                            <path d="M63.6383514,42.6781341 C66.0942677,35.2367077 62.1034037,28.0245002 56.2460433,26.0966059 C51.3260244,24.471608 45.8370514,26.309452 43.0700524,30.4190186 C43.2828985,25.4662541 39.9633183,20.7304288 35.0392061,19.1054309 C29.185939,17.1775366 21.6913011,20.5994466 19.2353848,28.0449662 C15.5187648,39.3258083 28.5637735,57.9375607 32.3868165,60.6922801 C32.460494,60.7495848 32.5300783,60.8027963 32.6160354,60.8478215 C32.7388312,60.9255921 32.8534406,60.9828969 32.9475841,61.0156424 C32.9598637,61.0156424 32.9680501,61.0156424 32.9803297,61.0197356 C32.9926092,61.0238288 33.0007956,61.027922 33.008982,61.0361084 C33.1072187,61.0688539 33.2341077,61.0893199 33.3773695,61.0975063 C33.4715129,61.1097859 33.5615632,61.1097859 33.6516134,61.1097859 C38.3669727,61.1670906 59.9217314,53.9548831 63.6383514,42.6781341" id="Fill-4" fill="#FDFDFD"></path>
                        </g>
                    </g>
                </g>
            </g>
        </g>
    </g>
</svg>