<?xml version="1.0" encoding="UTF-8"?>
<svg width="103px" height="103px" viewBox="0 0 103 103" version="1.1" xmlns="http://www.w3.org/2000/svg" xmlns:xlink="http://www.w3.org/1999/xlink">
    <!-- Generator: Sketch 51.1 (57501) - http://www.bohemiancoding.com/sketch -->
    <title>Fill 12</title>
    <desc>Created with Sketch.</desc>
    <defs></defs>
    <g id="Page-1" stroke="none" stroke-width="1" fill="none" fill-rule="evenodd" opacity="0.05">
        <g id="Website-Final-2.0" transform="translate(-1255.000000, -7179.000000)" fill="#000000">
            <g id="Background" transform="translate(-1091.000000, 0.000000)">
                <g id="Elements" transform="translate(170.000000, 6709.000000)">
                    <path d="M2227.5,503.614589 C2217.60392,503.614589 2209.52549,511.639821 2209.52549,521.564262 C2209.52549,531.445864 2217.60392,539.499656 2227.5,539.456816 C2237.39608,539.499656 2245.47451,531.460144 2245.47451,521.578542 C2245.44566,511.639821 2237.39608,503.614589 2227.5,503.614589 M2227.5,573 C2199.06681,572.98572 2176,549.938169 2176,521.578542 C2176,493.133237 2199.06681,469.985727 2227.5,470.000007 C2255.93319,470.000007 2279,493.118957 2279,521.578542 C2279,549.923889 2255.90434,572.98572 2227.5,573" id="Fill-12"></path>
                </g>
            </g>
        </g>
    </g>
</svg>