<?xml version="1.0" encoding="UTF-8"?>
<svg width="209px" height="209px" viewBox="0 0 209 209" version="1.1" xmlns="http://www.w3.org/2000/svg" xmlns:xlink="http://www.w3.org/1999/xlink">
    <!-- Generator: Sketch 51.1 (57501) - http://www.bohemiancoding.com/sketch -->
    <title>Heart of Ohio</title>
    <desc>Created with Sketch.</desc>
    <defs>
        <polygon id="path-1" points="0 16.3227526 0 32.6455052 120.860519 32.6455052 120.860519 16.3227526 120.860519 0 0 0"></polygon>
        <linearGradient x1="50%" y1="100%" x2="50%" y2="3.061617e-15%" id="linearGradient-3">
            <stop stop-color="#ED1A43" offset="0%"></stop>
            <stop stop-color="#EE3767" offset="100%"></stop>
        </linearGradient>
    </defs>
    <g id="Page-1" stroke="none" stroke-width="1" fill="none" fill-rule="evenodd">
        <g id="Website-Final-2.0" transform="translate(-192.000000, -6548.000000)">
            <g id="Clients" transform="translate(142.000000, 5976.000000)">
                <g id="Reviews">
                    <g id="Review-3" transform="translate(56.000000, 578.000000)">
                        <g id="Heart-of-Ohio">
                            <g id="Group-4" opacity="0.25" transform="translate(37.000000, 117.000000)">
                                <mask id="mask-2" fill="white">
                                    <use xlink:href="#path-1"></use>
                                </mask>
                                <g id="Clip-2"></g>
                                <path d="M120.860519,10.7896392 C120.466484,10.7978041 120.072101,10.8158351 119.677718,10.8158351 C80.1787147,10.8168557 40.6807579,10.8168557 1.18245245,10.8158351 C0.788069164,10.8158351 0.393685879,10.7978041 0,10.7896392 C0,7.19297938 0,3.59563918 0,0 C40.2867233,0 80.573098,0 120.860519,0 C120.860519,3.59563918 120.860519,7.19297938 120.860519,10.7896392" id="Fill-1" fill="#0A0B09" mask="url(#mask-2)"></path>
                                <path d="M0,21.78 C40.2867233,21.78 80.573098,21.78 120.860519,21.78 C120.860519,25.377 120.860519,28.974 120.860519,32.5699794 C120.422548,32.5835876 119.985274,32.6094433 119.546954,32.6094433 C80.1358242,32.6108041 40.7243458,32.6108041 1.31251873,32.6094433 C0.874896254,32.6084227 0.436925072,32.5835876 0,32.5699794 C0,28.974 0,25.377 0,21.78" id="Fill-3" fill="#0A0B09" mask="url(#mask-2)"></path>
                            </g>
                            <path d="M159,62 C158.514595,61.9783855 158.028838,61.9373493 157.544491,61.9373493 C140.553207,61.9339035 123.561922,61.9254456 106.571696,61.9552047 C105.415332,61.9573975 104.953563,61.7807224 105.003656,60.6263826 C105.115129,58.0304494 105.05657,55.4276246 105.025174,52.8279323 C105.018824,52.2336901 105.180038,51.999063 105.902854,52.0000028 C123.558748,52.0247499 141.21323,52.0313282 158.869124,52.0426053 C158.912514,52.0426053 158.956963,52.0573282 159,52.0648463 C159,55.3765642 159,58.6885954 159,62" id="Fill-5" fill="#0A0B09" opacity="0.25"></path>
                            <path d="M159,83.9918222 C141.56314,83.9849187 124.126633,83.9642084 106.690831,83.9999808 C105.369803,84.0024912 104.945804,83.7596149 105.005418,82.5282886 C105.127115,80.0069565 105.068207,77.4774658 105.024114,74.9517407 C105.011768,74.2585705 105.160273,73.9987493 106.024144,74.0000045 C123.683233,74.0304425 141.341264,74.0326391 159,74.0395425 C159,77.3572829 159,80.6747094 159,83.9918222" id="Fill-6" fill="#0A0B09" opacity="0.25"></path>
                            <path d="M159,103.974878 C141.423025,103.977075 123.846755,103.970483 106.270486,103.999988 C105.272287,104.001872 104.982249,103.774621 105.003067,102.885392 C105.067284,100.240932 105.069049,97.5933326 105.00095,94.9495003 C104.979426,94.1136312 105.322744,93.9990641 106.137111,94.0000057 C123.757839,94.0197803 141.378566,94.0182109 159,94.020722 C159,97.3387739 159,100.657454 159,103.974878" id="Fill-7" fill="#0A0B09" opacity="0.25"></path>
                            <path d="M40.0046738,100.589266 C39.9538783,87.4071093 40.3384733,74.5847754 40.1280345,61.7610914 C40.1024639,60.2330238 40.1014273,58.704281 40.0371553,57.1775636 C40.0122759,56.5780831 40.0578882,56.264841 40.8232773,56.2398627 C46.0327604,56.067377 51.2439712,55.9205448 56.4423967,55.5036764 C57.3003927,55.4351547 58.1386923,55.9688138 58.8232231,56.0079691 C60.1967768,56.0886424 61.1470341,56.901789 62.3312274,57.1988289 C63.0399465,57.3767153 63.5634519,57.6339248 64.0731353,58.1628583 C65.2690773,59.4033374 66.2742767,59.2548174 66.7518242,57.8712192 C66.8389023,58.1804107 67.3769207,58.458548 68.5307058,58.7471493 C66.9895613,59.3057868 65.3782705,59.1464654 64.0969781,59.9829027 C64.9266391,60.6056738 65.7936193,60.6583308 66.775667,60.1314226 C67.6246787,59.6757364 68.6986421,59.8144676 69.3603667,60.2725166 C71.42087,61.6969578 73.2533116,60.5631431 75.0449785,59.9083052 C76.4910972,59.3790341 77.7150286,58.5868153 79.4413869,58.9972704 C80.8522598,59.3321153 82.3284412,58.9857938 83.447326,57.817887 C84.2441599,56.9868505 85.1850873,56.2844187 85.9653349,55.4402178 C86.8544302,54.4785512 88.1260472,54.2267424 89.1896442,53.5978955 C91.8659142,52.0144704 94.9571875,51.4126271 97.8110692,50 C98.2506064,52.3847576 98.1345022,54.6425983 98.2754858,56.8771482 C98.5899346,61.8346763 98.7426669,66.8016556 98.9890427,71.7639092 C99.0284351,72.5348627 99.016341,73.0759479 97.9727857,73.1043017 C97.5678033,73.1151031 96.9164452,73.4404968 97.3307573,74.153055 C98.5716206,76.2887042 98.3100406,78.4236783 97.2975847,80.5411 C96.836278,81.5061421 96.5560385,82.5049387 96.5674416,83.5658436 C96.5816091,84.9669942 95.8103457,86.1639299 95.2989345,87.3591779 C94.9423289,88.1932523 95.8808375,88.8092725 95.2087465,89.5491719 C94.9122662,89.8759157 94.8445388,90.2975098 94.3241434,90.5969125 C93.5269639,91.0549615 92.8096061,91.7742706 92.2885195,92.53341 C91.4108274,93.8116941 90.1070744,94.4736204 88.8337297,95.2125071 C88.548998,95.3775668 88.2241828,95.4359621 88.0144351,95.1490486 C87.7739337,94.8209546 87.5949397,94.1468766 87.1578214,94.4378406 C86.5593321,94.8351315 85.7393465,95.1537743 85.6218601,96.0432062 C85.57763,96.3794013 85.739692,96.7729791 85.0496325,96.7598149 C83.9559728,96.7395621 83.0827727,97.87844 83.1898926,98.9555471 C83.2365416,99.4243976 83.4829174,99.9634574 82.6453088,100.127842 C82.0523483,100.244295 82.470807,100.622008 82.6124818,100.873142 C83.1563745,101.834471 83.0969402,102.110246 82.2095727,102.551417 C81.8484749,102.729641 81.9276054,103.153936 81.6912505,103.403719 C81.5388638,103.563378 81.3923514,103.735864 81.1480489,103.610297 C80.9237882,103.494181 80.9268981,103.334185 81.0139763,103.089802 C81.4586967,101.840884 80.2022838,101.733883 79.6124332,101.19381 C79.4569365,101.050691 79.2388957,101.210012 79.0927289,101.414565 C78.5066793,102.235812 77.7326515,102.959847 77.7571855,104.075097 C77.7596043,104.199314 77.7651331,104.400491 77.6960235,104.437958 C75.9665552,105.377347 77.4396268,106.636728 77.4036898,107.723287 C77.3853757,108.265047 77.499061,108.725459 76.8397553,108.661325 C75.7595719,108.556349 75.7257082,109.238865 75.6832058,109.931508 C75.6265359,110.839167 75.3884533,111.482191 74.2422702,111.447087 C73.7958221,111.433247 73.331751,111.702946 72.889795,111.876107 C72.2805937,112.115764 71.9112028,112.02969 71.5006916,111.423796 C70.8607366,110.476981 70.249462,109.438692 68.8092175,109.354643 C67.8302798,109.297936 67.9128658,108.398715 67.7570236,107.699659 C67.4107844,106.139862 66.5351655,105.836746 65.2238105,106.906089 C64.7808178,107.268276 64.2476371,107.558565 63.9041623,108.091549 C63.4933056,108.729509 61.717534,108.686979 61.0471707,108.362598 C59.94349,107.828263 58.8418827,107.067099 57.4773133,107.500507 C57.2392306,107.576454 56.8871171,107.657128 56.8128243,107.829276 C56.1880733,109.268569 55.2229575,108.277536 54.8794827,107.866743 C53.7716555,106.543228 52.6911266,105.73717 50.7436175,106.051425 C49.7653709,106.208383 48.4557436,106.060876 48.1440592,104.291463 C47.9650653,103.274439 47.5918734,101.604265 45.8164472,101.467559 C45.7767092,101.465197 45.7138195,101.43853 45.7051808,101.409164 C45.1695812,99.6907208 44.1018376,100.69053 43.2051403,100.961241 C42.6470801,101.129339 42.1909566,100.847151 41.9152092,100.548423 C41.338835,99.9253148 40.8301882,99.6481901 40.0046738,100.589266" id="Fill-8" fill="#0A0B09" opacity="0.25"></path>
                            <circle id="Oval-2" stroke="url(#linearGradient-3)" stroke-width="6" cx="98.5" cy="98.5" r="101.5"></circle>
                        </g>
                    </g>
                </g>
            </g>
        </g>
    </g>
</svg>