<?xml version="1.0" encoding="UTF-8"?>
<svg width="209px" height="209px" viewBox="0 0 209 209" version="1.1" xmlns="http://www.w3.org/2000/svg" xmlns:xlink="http://www.w3.org/1999/xlink">
    <!-- Generator: Sketch 51.1 (57501) - http://www.bohemiancoding.com/sketch -->
    <title>Hoodboyz</title>
    <desc>Created with Sketch.</desc>
    <defs>
        <linearGradient x1="50%" y1="100%" x2="50%" y2="3.061617e-15%" id="linearGradient-1">
            <stop stop-color="#03A9CC" offset="0%"></stop>
            <stop stop-color="#55C8E9" offset="100%"></stop>
        </linearGradient>
    </defs>
    <g id="Page-1" stroke="none" stroke-width="1" fill="none" fill-rule="evenodd">
        <g id="Website-Final-2.0" transform="translate(-1144.000000, -6271.000000)">
            <g id="Clients" transform="translate(142.000000, 5976.000000)">
                <g id="Reviews">
                    <g id="Review-2" transform="translate(56.000000, 301.000000)">
                        <g id="Hoodboyz" transform="translate(952.000000, 0.000000)">
                            <path d="M111.577922,74.7101951 C111.577922,79.5156568 111.577922,84.1868481 111.577922,88.8497948 C111.65967,88.8727621 111.7046,88.8969072 111.750154,88.8969072 C118.832235,88.892196 125.915565,88.9086853 132.997647,88.8680509 C135.620433,88.8527394 137.494386,87.354566 138.034793,84.9642022 C138.52403,82.7982111 138.440411,80.5980634 138.136509,78.4326612 C137.807023,76.0829318 136.445396,74.958124 134.16645,74.9063004 C130.526501,74.8244426 126.887175,74.747885 123.247226,74.717262 C119.383251,74.6854611 115.518652,74.7101951 111.577922,74.7101951 Z M111.577922,123.054546 C111.915442,123.054546 112.191305,123.052134 112.467169,123.054546 C115.440648,123.082277 118.413492,123.152811 121.3857,123.1293 C126.618846,123.087703 131.852627,123.046106 137.081324,122.88876 C139.927677,122.803757 142.195606,120.811918 142.421255,118.065906 C142.634827,115.463373 142.61258,112.820448 142.405364,110.21671 C142.208319,107.741982 140.368169,106.154057 137.910821,105.99852 C135.073367,105.818869 132.231463,105.608472 129.39083,105.600032 C123.801096,105.581343 118.21009,105.692269 112.620356,105.753158 C112.27648,105.756775 111.932604,105.789932 111.577922,105.809826 C111.577922,111.576755 111.577922,117.261695 111.577922,123.054546 Z M42.1648174,89.2588562 C42.1648174,78.8844611 42.1648174,68.611409 42.1648174,58.2900984 C48.1567696,58.2900984 54.1140424,58.2900984 60.1356295,58.2900984 C60.1356295,68.4569815 60.1356295,78.6039579 60.1356295,88.788938 C71.053303,88.788938 81.9079232,88.788938 92.8350547,88.788938 C92.8350547,78.5406185 92.8350547,68.3230638 92.8350547,58.0023564 C94.9158125,58.0023564 96.9253202,57.9963241 98.9341973,58.0035628 C108.088271,58.0361374 117.242344,58.0421697 126.395787,58.12059 C130.706739,58.1579904 135.035977,58.2635561 139.270004,59.0905881 C148.424708,60.8779664 154.243894,66.2817245 156.854299,74.7474916 C158.871373,81.2907561 157.742089,87.5251656 153.968982,93.3143894 C153.569855,93.927877 153.158747,94.5335226 152.755206,95.143994 C152.730616,95.1807912 152.718005,95.2260336 152.706655,95.2531791 C153.799999,96.3239171 154.966485,97.3264897 155.962096,98.4659962 C158.898486,101.827812 160.336731,105.796479 160.780626,110.105973 C161.233979,114.507159 161.036623,118.879992 159.696741,123.144244 C157.262885,130.893371 151.740679,135.531023 143.673644,137.570553 C140.384786,138.401807 137.01648,138.587603 133.640608,138.735395 C121.791007,139.255382 109.941406,138.868106 98.0911751,138.755302 C96.4839473,138.740824 94.8754584,138.753492 93.2064384,138.753492 C93.2064384,127.670299 93.2064384,116.656477 93.2064384,105.610081 C82.1853576,105.610081 71.2254384,105.610081 60.1785058,105.610081 C60.1785058,116.63657 60.1785058,127.667282 60.1785058,138.729966 C54.2546512,138.729966 48.4184406,138.729966 42.5198073,138.729966 C42.5198073,127.678744 42.5198073,116.664319 42.5198073,105.598619 C38.9863022,105.598619 35.5145892,105.598619 32,105.598619 C32,100.133331 32,94.7193182 32,89.2588562 C35.3891132,89.2588562 38.7353502,89.2588562 42.1648174,89.2588562 Z" id="Fill-1" fill="#0D0D0B" opacity="0.25"></path>
                            <circle id="Oval-2" stroke="url(#linearGradient-1)" stroke-width="6" cx="98.5" cy="98.5" r="101.5"></circle>
                        </g>
                    </g>
                </g>
            </g>
        </g>
    </g>
</svg>