<?xml version="1.0" encoding="UTF-8"?>
<svg width="209px" height="209px" viewBox="0 0 209 209" version="1.1" xmlns="http://www.w3.org/2000/svg" xmlns:xlink="http://www.w3.org/1999/xlink">
    <!-- Generator: Sketch 51.1 (57501) - http://www.bohemiancoding.com/sketch -->
    <title>Sharq &amp; Gharb</title>
    <desc>Created with Sketch.</desc>
    <defs>
        <polygon id="path-1" points="31.9028364 14.7591961 0 14.7591961 0 0 63.8056727 0 63.8056727 14.7591961"></polygon>
        <linearGradient x1="50%" y1="100%" x2="50%" y2="3.061617e-15%" id="linearGradient-3">
            <stop stop-color="#EF7331" offset="0%"></stop>
            <stop stop-color="#F89F1D" offset="100%"></stop>
        </linearGradient>
    </defs>
    <g id="Page-1" stroke="none" stroke-width="1" fill="none" fill-rule="evenodd">
        <g id="Website-Final-2.0" transform="translate(-147.000000, -5976.000000)">
            <g id="Clients" transform="translate(142.000000, 5976.000000)">
                <g id="Reviews">
                    <g id="Review-1">
                        <g id="Sharq-&amp;-Gharb">
                            <path d="M110.219972,71.7045466 C110.979394,70.9692513 111.697735,70.3576963 112.313182,69.6581315 C113.139408,68.7193606 113.318706,67.6226236 112.724376,66.5018154 C112.192243,65.499482 111.321096,64.9575073 110.135891,65.0124194 C109.085063,65.0609376 108.292239,65.5502569 107.81616,66.4698461 C107.319349,67.4285507 107.316278,68.4387825 107.965895,69.2921763 C108.62511,70.1564774 109.45364,70.8970382 110.219972,71.7045466 Z M134.764889,60 C135.814949,60.2741843 136.884973,60.4900715 137.91123,60.8330839 C144.777894,63.1273555 148.901731,67.8968078 150.481621,74.718693 C151.776631,80.3088175 150.658998,85.5186947 146.973997,90.0478126 C143.919801,93.8013915 139.882348,96.0102862 135.037482,96.6925499 C128.330919,97.6365863 122.639477,95.6172511 117.869862,90.8135728 C117.330819,91.5067438 116.779105,92.2134546 116.230079,92.9227983 C113.15515,96.8937688 107.567755,97.8998634 103.436622,96.0787382 C101.152597,95.0722676 99.5665651,93.4139981 98.6132564,91.0366061 C98.1963038,91.3995524 97.8296466,91.7376754 97.4430248,92.0521034 C93.2581416,95.4589088 88.5069553,97.3360743 83.0044098,96.9501853 C79.943686,96.7350504 77.1736004,95.5728701 74.5789728,93.9996016 C74.3981398,93.8901535 74.1935029,93.8190687 74,93.7299306 C74.0733314,93.6201065 74.1466629,93.5102823 74.2199943,93.4004581 C74.5413473,93.4324275 74.869995,93.4343081 75.1836693,93.5016318 C79.9325519,94.5178813 84.2971164,93.4869635 88.1990401,90.82448 C90.4907436,89.2606142 92.5482472,87.3552404 94.6437603,85.5288497 C98.2615726,82.3759187 101.82717,79.1646906 105.414652,75.9775335 C105.484911,75.9150992 105.553636,75.8519127 105.636182,75.7774429 C105.095218,75.1549807 104.520853,74.5727622 104.038631,73.9251006 C101.6759,70.752988 101.594122,66.7703581 103.90579,63.8272965 C105.878444,61.3167615 108.575582,60.3065297 111.720388,60.8868676 C114.990355,61.4905244 117.173789,63.4865407 118.003855,66.6627906 C118.917619,70.1617429 117.589974,73.0604235 115.078276,75.4972409 C110.581639,79.8604943 106.046607,84.1861366 101.510808,88.5437483 C102.615387,90.212925 105.214238,91.0162962 107.408038,90.2354916 C109.640616,89.4407709 111.324167,87.8923256 112.712474,86.0948954 C115.898744,81.9693436 118.990566,77.7734593 122.105041,73.5944999 C123.236879,72.0768956 123.213075,72.0656123 124.803715,73.1623493 C127.578791,75.0767498 130.357323,76.9866369 133.135088,78.8980285 C133.79699,79.3538739 133.80083,79.4787425 133.169642,80.0241022 C131.189693,81.7342748 128.969401,81.8937455 126.751797,80.4833326 C126.476516,80.3088175 126.208146,80.1252758 125.909061,79.9274419 C124.65782,81.6158001 123.415792,83.2706846 122.208319,84.9488879 C122.093907,85.1079825 122.096594,85.4709287 122.20448,85.6424349 C123.938711,88.3876626 126.493409,90.0211088 129.675456,90.6668899 C133.43494,91.4292651 136.960992,90.8752549 140.01327,88.4489686 C142.528039,86.4506956 143.967792,83.7829466 144.672312,80.7330697 C145.341125,77.8362697 145.331527,74.954514 144.090651,72.177317 C143.07361,69.9018508 141.406567,68.1687354 139.243865,66.9046294 C137.941177,66.1433825 136.666131,66.4435184 135.769261,67.6493274 C135.366514,68.1901737 134.982963,68.7456883 134.601333,69.301203 C134.384794,69.6160071 134.184764,69.6588837 133.855348,69.4080182 C132.571088,68.4293797 131.256497,67.4883523 129.979148,66.5006871 C129.833637,66.3882302 129.727671,65.9782702 129.81636,65.8609238 C131.304105,63.8927396 132.825637,61.9490026 134.339106,60 C134.481161,60 134.623217,60 134.764889,60 Z" id="Fill-1" fill="#0B0B09" opacity="0.25"></path>
                            <path d="M83.0360055,60 C84.2577629,61.5871263 85.4894069,63.166666 86.6830254,64.7746556 C86.776568,64.9009732 86.6879687,65.3239287 86.5465141,65.4373491 C85.5639367,66.2252222 84.5570231,66.9854042 83.5234916,67.7042389 C83.3687281,67.8112106 82.9979801,67.7133428 82.7854178,67.6006811 C82.5975722,67.5012961 82.4933825,67.2471434 82.3481253,67.0646846 C81.6127133,66.1413898 80.5152991,65.7389182 79.4783453,66.2677075 C76.3849758,67.8445918 73.9152235,70.0348565 72.9881633,73.5451975 C72.5759675,75.1076672 72.7858679,76.6469976 73.4060628,78.1241176 C74.1201806,79.8239056 75.64386,80.5097384 77.4120429,79.9297393 C79.2756697,79.3190143 80.7381282,78.0831497 82.1960235,76.8378018 C83.6508769,75.5947299 85.0699863,74.2996894 86.6065943,73.1643479 C89.1333848,71.296895 91.9986017,70.5230571 95.1284756,71.0844689 C97.297827,71.4736638 98.7564829,72.8479847 99.6025489,74.8201333 C100.387774,76.6481356 99.9736772,78.8710229 98.6762492,80.3602815 C98.5602716,80.2146179 98.4070291,80.0947488 98.3496107,79.9388433 C97.903192,78.7264973 96.9012216,78.2538492 95.7479101,78.1100823 C93.7736292,77.8638956 91.9244521,78.2481593 90.3559027,79.5485103 C88.1082189,81.4117906 85.8844912,83.302762 83.64061,85.1705943 C81.6937075,86.7911018 79.4931753,87.8767508 76.9287396,87.9913092 C74.5707821,88.0960049 72.5044797,87.2485765 70.6762165,85.7843539 C68.1501865,83.7609955 67.043266,81.0973241 67.001438,77.9101742 C66.8919247,69.5299652 73.050525,62.1424688 81.0396699,60.4092995 C81.5693643,60.2943619 82.0899325,60.1376976 82.6146836,60 C82.7549975,60 82.8953114,60 83.0360055,60" id="Fill-2" fill="#0B0B09" opacity="0.25"></path>
                            <g id="Group-6" opacity="0.25" transform="translate(33.000000, 126.000000)">
                                <mask id="mask-2" fill="white">
                                    <use xlink:href="#path-1"></use>
                                </mask>
                                <g id="Clip-4"></g>
                                <path d="M55.5126945,1.77175707 C52.8153854,1.7596839 51.0036035,3.44736682 51.0090338,5.96700097 C51.0144642,8.70431804 52.9181732,10.7871229 55.4397732,10.8141961 C57.9679672,10.8401717 59.8499551,9.03651317 59.8654702,6.57248878 C59.8825369,3.83114731 58.026149,1.78309853 55.5126945,1.77175707 Z M61.0143672,14.7591961 C59.626149,14.014318 58.2507308,13.2456595 56.8384642,12.5446839 C56.5440642,12.3987083 56.1084763,12.4755376 55.7415429,12.4960254 C53.6341975,12.6167571 51.7747066,12.0727327 50.2926217,10.6221229 C46.7543914,7.16004975 48.4626096,1.49663512 53.4092278,0.29700097 C56.1907066,-0.37799903 58.7545854,0.0515131653 60.7769854,2.06114731 C63.5309248,4.79846438 62.8862702,9.08626926 59.3526945,11.4599278 C60.1218581,11.9651717 60.7990945,12.5556595 61.5961854,12.89444 C62.375046,13.2262693 63.2760884,13.3001717 64.2120399,13.5057815 C63.8187308,14.3662693 62.8994581,14.4401717 62.1609369,14.7591961 C61.7788763,14.7591961 61.3968157,14.7591961 61.0143672,14.7591961 Z" id="Fill-3" fill="#0B0B09" mask="url(#mask-2)"></path>
                                <path d="M0,10.0858246 C0.101236364,10.007166 0.202472727,9.92850749 0.331248485,9.82753188 C0.779248485,10.0850929 1.22220606,10.3788733 1.70123636,10.6053368 C2.90831515,11.1757026 4.1782303,11.3783855 5.49779394,11.0161904 C6.17192727,10.8310685 6.7510303,10.4578977 6.82666667,9.75472701 C6.90191515,9.05265383 6.43025455,8.5792392 5.79568485,8.27119042 C4.54710303,7.66570262 3.26361212,7.11838554 2.04412121,6.46387335 C0.9344,5.86789774 0.310690909,4.91082457 0.357236364,3.68301969 C0.403781818,2.44753188 1.10584242,1.55009286 2.29197576,1.0689953 C2.98046061,0.79021481 3.74031515,0.543995298 4.47612121,0.521312371 C5.5350303,0.488751396 6.60324848,0.658873347 7.66409697,0.769361152 C8.13071515,0.818385542 8.3638303,1.07667822 8.31961212,1.55411725 C8.26569697,2.13436115 8.25716364,2.71716603 8.12334545,3.32119042 C7.19321212,2.72558066 6.34220606,2.19143432 5.27204848,2.21265383 C4.78215758,2.22216603 4.22438788,2.23131237 3.8272,2.45045871 C3.45173333,2.65716603 3.13250909,3.10460505 2.99636364,3.50814164 C2.83229091,3.9939953 3.14026667,4.42167822 3.63752727,4.66497091 C4.83878788,5.25362944 6.04741818,5.82838554 7.24596364,6.42143432 C8.49997576,7.04338554 9.45997576,7.87131237 9.31684848,9.35777579 C9.17139394,10.8709465 8.22690909,11.8876538 6.8297697,12.4858246 C4.8841697,13.3177758 2.88349091,13.1381416 0.919272727,12.4924099 C0.717187879,12.4258246 0.558157576,12.1075319 0.47670303,11.8755807 C0.286254545,11.3337514 0.155151515,10.7739953 0,10.2215563 C0,10.1758246 0,10.1308246 0,10.0858246" id="Fill-5" fill="#0B0B09" mask="url(#mask-2)"></path>
                            </g>
                            <path d="M154.374403,119.288731 C153.249983,123.486256 147.935014,123.71889 145,121.981984 C145.481156,121.921768 145.960326,121.822281 146.443469,121.806947 C147.633049,121.769546 148.753893,121.52008 149.794081,120.967666 C150.981277,120.33858 151.597523,119.369144 151.611429,118.099003 C151.636461,115.81978 151.636858,113.539062 151.599907,111.259839 C151.594742,110.936694 151.384161,110.569789 151.155304,110.310599 C150.933599,110.05889 150.567666,109.919384 150.26451,109.72976 C150.333643,109.633266 150.403572,109.535649 150.473103,109.43878 C152.058416,109.43878 153.642934,109.43878 155.367706,109.43878 C155.219903,109.644112 155.095144,109.799326 154.989854,109.965387 C154.75901,110.327056 154.354537,110.689846 154.343412,111.060865 C154.279443,113.102965 154.312818,115.146934 154.312818,117.247754 C154.782849,117.247754 155.193282,117.247754 155.603715,117.247754 C158.613028,117.246632 161.622341,117.253364 164.631654,117.24177 C166.032212,117.236533 166.853873,116.549475 166.890029,115.237071 C166.949627,113.074166 166.945257,110.908269 166.908703,108.744616 C166.901551,108.342554 166.662364,107.920296 166.443837,107.553391 C166.239614,107.210049 166.242792,107.015937 166.686601,107.009579 C167.90598,106.992375 169.125757,107.003595 170.392021,107.003595 C170.375333,107.201073 170.419038,107.384338 170.345137,107.44792 C169.650619,108.046711 169.666114,108.818296 169.674061,109.612695 C169.692735,111.523891 169.695516,113.436209 169.666114,115.347404 C169.654592,116.116745 170.025293,116.619041 170.713056,116.940691 C171.533923,117.323304 172.39174,117.352103 173.267039,117.110118 C174.246039,116.840082 174.832485,116.24503 174.840829,115.274472 C174.859503,113.067434 174.857517,110.858525 174.797918,108.651487 C174.788383,108.28533 174.476088,107.909075 174.248026,107.570596 C174.072012,107.30991 173.970298,107.0395 174.370003,107.026784 C175.723677,106.983398 177.08053,107.010327 178.471553,107.010327 C178.444535,107.196211 178.46003,107.287843 178.421888,107.315894 C177.416664,108.078502 177.434941,109.128351 177.45441,110.203258 C177.484209,111.883689 177.459575,113.56599 177.463945,115.246795 C177.465932,116.133949 177.887888,116.76341 178.766763,117.04504 C180.233276,117.513675 181.911165,117.303107 182.357357,115.927495 C182.496817,115.495513 182.557209,115.025755 182.562375,114.572454 C182.585419,112.752517 182.619192,110.931832 182.547276,109.114887 C182.521848,108.460741 182.211937,107.817443 182.012879,107.099342 C183.225107,107.099342 184.562094,107.099342 186,107.099342 C185.925304,107.279615 185.837893,107.46475 185.771143,107.656244 C185.592348,108.163777 185.290781,108.670188 185.274888,109.183331 C185.214495,111.070216 185.235553,112.960093 185.25383,114.848848 C185.286411,118.111719 182.932678,119.471249 179.926544,119.24759 C178.461222,119.138379 177.952651,118.868717 176.54216,117.797924 C175.168222,119.471249 170.978467,120.099213 168.823793,117.729106 C167.693016,119.017573 166.144257,119.289479 164.487029,119.289479 C161.112975,119.288731 157.738921,119.288731 154.374403,119.288731" id="Fill-7" fill="#0B0B09" opacity="0.25"></path>
                            <g id="Group-11" opacity="0.25" transform="translate(59.000000, 106.000000)" fill="#0B0B09">
                                <path d="M9.11491022,10.3494446 C15.8112446,10.3494446 22.4517957,10.3494446 28.9788297,10.3494446 C28.5575294,9.4993196 27.9723901,8.6653196 27.7203901,7.7454446 C26.7841672,4.3351946 29.0650402,0.963194604 32.7116285,0.222944604 C34.4030712,-0.119805396 36.098805,-0.0369303956 37.7801053,0.265319604 C38.0067492,0.306569604 38.291517,0.660944604 38.3344272,0.904319604 C38.421418,1.3985696 38.3800681,1.9171946 38.3512012,2.4241946 C38.3398885,2.6146946 38.2173994,2.7991946 38.1448421,2.9863196 C37.9564272,2.9150696 37.7438266,2.8756946 37.5827183,2.7665696 C36.0012817,1.6959446 33.9669474,1.6663196 32.3168545,2.6630696 C31.0346192,3.4370696 30.3129474,4.5174446 30.3777028,5.9765696 C30.4549412,7.7101946 31.075969,9.1835696 32.8696161,9.9301946 C34.4319381,10.5804446 36.0562848,10.5294446 37.6494241,10.1124446 C38.1643467,9.9781946 38.5786254,9.5011946 39.0506378,9.1978196 C39.2495851,9.0695696 39.4785697,8.9840696 39.7422724,8.8561946 C40.0016842,10.8365696 38.4397523,12.3965696 36.3145263,12.4119446 C33.6006502,12.4321946 30.8863839,12.4175696 28.1717276,12.4175696 C22.0944706,12.4175696 16.0172136,12.4175696 9.93995666,12.4175696 C9.67703406,12.4175696 9.41411146,12.4175696 9.16055108,12.4175696 C8.11588235,16.5553196 2.87108359,16.8478196 0,15.1040696 C0.439634675,15.0406946 0.88473065,15.0009446 1.31773375,14.9090696 C2.38034675,14.6818196 3.4897709,14.5520696 4.48333746,14.1579446 C5.81394427,13.6291946 6.46500929,12.5143196 6.48217337,11.1290696 C6.51026006,8.8663196 6.51845201,6.6020696 6.46500929,4.3408196 C6.45603715,3.9646946 6.13772136,3.5593196 5.87089783,3.2379446 C5.70744892,3.0410696 5.36923839,2.9776946 5.10982663,2.8539446 C5.19681734,2.7406946 5.28380805,2.6270696 5.37079876,2.5130696 C6.92492879,2.5130696 8.47905882,2.5130696 10.1981981,2.5130696 C9.98481734,2.7646946 9.81902786,2.9244446 9.69731889,3.1115696 C9.4882291,3.4329446 9.14923839,3.7689446 9.14104644,4.1045696 C9.08916409,6.1760696 9.11491022,8.2494446 9.11491022,10.3494446" id="Fill-8"></path>
                                <path d="M118.809548,25.3199056 C119.949399,25.3217806 121.101734,25.4054056 121.721201,24.3404056 C121.92561,23.9882806 121.876068,23.2832806 121.63265,22.9472806 C120.939065,21.9921556 119.841344,22.2434056 118.809548,22.2816556 C118.809548,23.3046556 118.809548,24.2646556 118.809548,25.3199056 Z M107.543666,22.3019056 C107.543666,23.6459056 107.543666,24.9419056 107.543666,26.2446556 C110.485356,25.7125306 110.705368,24.5976556 110.493938,23.5067806 C110.329319,22.6585306 109.575269,21.9524056 107.543666,22.3019056 Z M118.822421,30.9591556 C119.226167,31.0041556 119.605337,31.0799056 119.984898,31.0799056 C120.41322,31.0799056 120.844663,31.0307806 121.268693,30.9685306 C122.330916,30.8132806 122.924638,30.2211556 123.01904,29.2581556 C123.110712,28.3191556 122.510359,27.3479056 121.545269,27.1465306 C120.673802,26.9650306 119.760594,26.9699056 118.822421,26.8892806 C118.822421,28.3056556 118.822421,29.5877806 118.822421,30.9591556 Z M107.501926,26.6687806 C107.501926,27.9602806 107.498025,29.0680306 107.503096,30.1761556 C107.508947,31.5287806 107.512068,31.5287806 108.415133,32.7194056 C107.008848,32.7194056 105.686824,32.7194056 104.364799,32.7194056 C105.37982,31.8186556 105.128601,30.6914056 105.140693,29.6417806 C105.161368,27.7480306 105.161759,25.8542806 105.140693,23.9616556 C105.128211,22.8362806 105.399325,21.6332806 104.16,20.6901556 C104.513034,20.6342806 104.689356,20.5829056 104.865678,20.5817806 C106.42644,20.5750306 107.989932,20.5251556 109.548743,20.5911556 C111.021344,20.6534056 112.238824,21.2290306 112.882477,22.6067806 C113.546805,24.0295306 112.908223,25.6307806 111.324056,26.5304056 C111.020563,26.7044056 110.697957,26.8472806 110.348824,27.0220306 C111.955616,29.0144056 113.44109,31.0645306 115.713381,32.4441556 C116.201387,32.1655306 116.435443,31.7695306 116.434272,31.2149056 C116.428811,28.2374056 116.454947,25.2587806 116.409697,22.2816556 C116.404625,21.8852806 116.054322,21.4949056 115.869808,21.1000306 C115.815585,20.9856556 115.71182,20.8322806 115.75239,20.7535306 C115.798811,20.6624056 115.979424,20.5847806 116.099573,20.5866556 C118.017269,20.6207806 119.949789,20.5405306 121.847201,20.7486556 C124.02392,20.9875306 125.072099,23.1085306 123.991932,24.8027806 C123.785963,25.1271556 123.464136,25.3832806 123.180929,25.6874056 C123.273771,25.7361556 123.411084,25.8111556 123.550737,25.8824056 C126.12418,27.1814056 126.380861,30.1904056 123.975548,31.7897806 C123.221889,32.2907806 122.243926,32.6672806 121.340861,32.7317806 C119.509765,32.8615306 117.659164,32.7212806 115.816755,32.7306556 C115.180904,32.7347806 114.547003,32.8682806 113.910762,32.9196556 C112.98117,32.9965306 112.193573,32.6620306 111.63457,31.9761556 C110.353895,30.4015306 109.122372,28.7890306 107.872514,27.1915306 C107.776551,27.0689056 107.691901,26.9372806 107.501926,26.6687806 Z" id="Fill-10"></path>
                            </g>
                            <path d="M145.491865,112.232362 C145.491865,111.063987 145.491865,109.927344 145.491865,108.77233 C144.474774,108.731581 143.452554,108.660102 142.845377,109.474758 C142.416526,110.050929 142.490697,110.716949 142.971625,111.269739 C143.577619,111.966822 144.396657,112.34459 145.491865,112.232362 Z M145.532106,112.993575 C143.670333,113.546365 142.098142,113.111481 140.757145,112.048321 C139.157732,110.781079 139.481244,108.527833 141.410876,107.65172 C142.136017,107.322384 142.999637,107.10394 143.81907,107.053504 C145.366011,106.958645 146.926365,107.017097 148.481591,107.025447 C148.654394,107.026449 148.827592,107.114628 149,107.162726 C148.930169,107.302009 148.852841,107.43862 148.792084,107.580241 C148.608629,108.008779 148.293007,108.435646 148.277226,108.86886 C148.216864,110.553951 148.256711,112.24138 148.251977,113.927807 C148.244086,116.554812 146.526315,117.999749 143.416257,117.99908 C137.852636,117.996742 132.289803,118.011105 126.726576,117.975032 C125.847175,117.970021 124.928321,117.839423 124.09942,117.593256 C121.897169,116.938926 121.154669,115.403138 121.048147,113.585111 C120.986206,112.537983 121.090756,111.48384 121.011456,110.439051 C120.848516,108.291353 122.451086,107.581243 124.073381,107.158384 C124.458834,107.058514 124.881767,107.039475 125.289708,107.029789 C125.471585,107.025447 125.657802,107.137007 125.842835,107.195793 C125.718165,107.324054 125.624662,107.50442 125.464484,107.573561 C124.594551,107.946986 123.98698,108.506457 123.743951,109.305414 C123.618491,109.71725 123.551422,110.1518 123.541953,110.578 C123.514731,111.790798 123.526961,113.004598 123.529328,114.218064 C123.53209,115.398796 124.364937,116.135293 125.778922,116.155 C127.576388,116.179717 129.374642,116.168026 131.172502,116.168694 C135.083844,116.170698 138.995975,116.127945 142.906134,116.186731 C144.82038,116.21579 145.646519,115.204067 145.536052,113.917453 C145.510013,113.613836 145.532106,113.307213 145.532106,112.993575 Z" id="Fill-12" fill="#0B0B09" opacity="0.25"></path>
                            <path d="M46.5753266,116.164232 C49.3449933,116.164232 52.1142655,116.167569 54.8839322,116.16323 C56.7439206,116.160561 57.532887,115.492081 57.5368318,113.920168 C57.5407767,112.235119 57.5676015,110.549067 57.5178966,108.865019 C57.5048787,108.419477 57.3040867,107.957248 57.0859375,107.541742 C56.8942187,107.17563 56.8764669,106.99975 57.414542,107.000417 C58.4595281,107.002086 59.5041196,106.995411 60.5487112,107.007092 C60.6997983,107.008427 60.8493074,107.090527 61,107.134914 C60.9341213,107.274083 60.8642978,107.411584 60.8043363,107.552088 C60.6138009,107.999299 60.2808571,108.442839 60.2638943,108.895055 C60.1995936,110.599128 60.2575826,112.305538 60.2331246,114.011613 C60.1976211,116.497971 58.6196883,117.939725 55.7304932,117.963087 C49.9008202,118.00981 44.0695692,118.014149 38.2398963,117.964755 C35.0366925,117.937389 33.1269993,116.253006 33.0425799,113.548049 C33.0074708,112.418341 33.0488916,111.287299 33.002737,110.157591 C32.9502708,108.866688 33.6532399,107.97794 35.0130235,107.508702 C35.7787155,107.244381 36.6304047,107.154271 37.4501408,107.012098 C37.564541,106.992741 37.7160225,107.125236 37.8501468,107.187311 C37.7649385,107.294775 37.7085274,107.454636 37.5897879,107.502361 C35.9550495,108.157158 35.4911372,109.325579 35.5262462,110.745306 C35.554649,111.916397 35.5286131,113.088156 35.53098,114.259581 C35.5325579,115.367262 36.2875988,116.094146 37.6130624,116.118843 C40.1626075,116.167569 42.7137304,116.152885 45.2636699,116.164232 C45.7011518,116.1659 46.1382392,116.164232 46.5753266,116.164232" id="Fill-13" fill="#0B0B09" opacity="0.25"></path>
                            <path d="M147.878726,137.998982 C146.869032,137.998982 145.749997,137.998982 144.631646,137.998982 C144.599869,137.958251 144.567408,137.916162 144.535289,137.875431 C145.415141,137.286189 145.240196,136.417601 145.245321,135.599587 C145.250446,134.74729 145.246346,133.895334 145.246346,133.017241 C143.460333,133.017241 141.726256,133.017241 139.950835,133.017241 C139.950835,134.262592 139.905732,135.493007 139.976461,136.717313 C140.00038,137.126999 140.321227,137.519714 140.543325,138 C139.430441,138 138.313798,138 137,138 C138.122452,137.06115 137.791012,135.924416 137.806388,134.882382 C137.837482,132.773195 137.817664,130.661292 137.767436,128.551427 C137.759235,128.20148 137.4893,127.857642 137.340665,127.511089 C137.288386,127.389575 137.19818,127.26874 137.20023,127.149262 C137.201255,127.098688 137.396019,127.011795 137.503309,127.010098 C138.408446,126.998557 139.3129,126.998557 140.217695,127.010098 C140.32601,127.011116 140.520432,127.092578 140.523165,127.14451 C140.529316,127.263648 140.44321,127.388896 140.391956,127.510071 C140.242638,127.861715 139.988421,128.205892 139.96211,128.566361 C139.898556,129.436987 139.941609,130.316776 139.941609,131.231187 C141.691745,131.231187 143.426847,131.231187 145.216961,131.231187 C145.216961,130.218682 145.238146,129.183436 145.199193,128.151245 C145.190992,127.939104 144.955226,127.736807 144.826067,127.529418 C144.755338,127.415711 144.688025,127.299288 144.619003,127.184562 C144.760121,127.124145 144.900214,127.014171 145.042016,127.011795 C145.904441,126.995503 146.767208,126.9972 147.629292,127.010098 C147.754692,127.012474 147.908453,127.083753 147.989092,127.175058 C148.027703,127.218505 147.957314,127.423178 147.879751,127.489366 C147.42667,127.872577 147.391476,128.387145 147.390792,128.914272 C147.388742,131.338785 147.360382,133.763976 147.410269,136.186792 C147.422911,136.766869 147.700705,137.339818 147.878726,137.998982" id="Fill-14" fill="#0B0B09" opacity="0.25"></path>
                            <path d="M48.4289706,131.178717 C50.5785925,131.178717 52.5919874,131.178717 54.702518,131.178717 C54.5682653,129.762821 55.1060657,128.307708 53.8792334,127 C55.3188956,127 56.587978,127 58,127 C56.6029827,128.300947 57.1944841,129.801701 57.1198554,131.196635 C57.0369347,132.753849 57.0985329,134.316473 57.1186708,135.877744 C57.1273578,136.578254 57.0641801,137.315277 57.9593293,137.827136 C56.6175926,138.05399 55.317711,137.999221 53.9743948,137.951889 C53.9897944,137.791637 53.9546518,137.643894 54.0158552,137.60231 C54.7060717,137.139473 54.6669805,136.477843 54.6796161,135.840555 C54.6985694,134.887159 54.6843544,133.933424 54.6843544,132.945543 C52.6093612,132.945543 50.5789873,132.945543 48.5896789,132.945543 C48.5896789,134.265422 48.5513775,135.589697 48.6196884,136.909576 C48.6346931,137.202695 49.0275795,137.480262 49.3525499,137.903205 C47.9496097,138.064133 46.6078729,138.009701 45.2108556,137.847759 C46.2224888,137.174972 46.0459861,136.262484 46.0566473,135.413217 C46.0787595,133.686285 46.0996871,131.957662 46.0499347,130.231744 C46.0187407,129.149537 46.4258421,127.964553 45,127.012171 C46.596422,127.012171 47.9239437,127.012171 49.3908514,127.012171 C47.9823831,128.281 48.6496978,129.75775 48.4289706,131.178717" id="Fill-15" fill="#0B0B09" opacity="0.25"></path>
                            <path d="M109.118348,131.019517 C109.641045,130.515624 110.202072,130.045069 109.938656,129.292869 C109.83795,129.004711 109.349447,128.732264 109.010877,128.694329 C108.742201,128.662907 108.239795,128.942252 108.175538,129.179062 C107.948573,130.011731 108.602038,130.462744 109.118348,131.019517 Z M111.802856,137.192303 C110.755958,136.041204 109.748892,134.934939 108.744456,133.830972 C106.927602,135.331922 107.262415,136.855097 108.007569,137.610745 C109.036806,138.654168 110.763849,138.407777 111.802856,137.192303 Z M110.490288,132.456475 C113.154129,135.072887 115.728161,137.705776 119,139.510594 C116.742743,140.096873 114.75529,139.802967 113.123692,137.988569 C112.387556,139.025478 111.508628,139.755835 110.298269,139.924438 C109.234085,140.072349 108.182302,140.027516 107.17486,139.569222 C105.101355,138.627345 104.34831,136.101365 105.629689,134.184655 C106.093391,133.491467 106.70214,132.90059 107.284961,132.216215 C106.610452,131.45482 105.841248,130.584981 106.085124,129.395181 C106.207625,128.797023 106.574378,128.14407 107.025303,127.744021 C108.256705,126.651167 110.287372,126.800994 111.300451,127.939447 C112.374404,129.145725 112.105728,130.728294 110.490288,132.456475 Z" id="Fill-16" fill="#0B0B09" opacity="0.25"></path>
                            <path d="M134,133.280913 C133.973902,133.762126 133.923766,134.244479 133.927543,134.725691 C133.939562,136.149944 133.985921,137.574577 133.9818,138.999209 C133.981113,139.174438 133.776104,139.470159 133.62707,139.505129 C131.994211,139.887134 130.349677,140.091631 128.669773,139.960114 C126.128283,139.760559 123.826828,137.837609 123.211458,135.309152 C122.377,131.880227 124.067893,128.618928 127.301674,127.450105 C128.990507,126.840417 130.705437,126.905415 132.417964,127.315928 C132.550173,127.347097 132.734921,127.567558 132.741446,127.709717 C132.775442,128.402268 132.756898,129.09748 132.756898,129.900641 C130.022418,128.293938 127.518702,128.116429 125.77733,131.264077 C124.845347,132.948321 125.154062,134.787648 126.278691,136.365083 C127.495694,138.071754 129.564325,138.644572 131.877799,137.904508 C131.58076,136.409936 132.424146,134.694523 130.979126,133.280913 C132.051558,133.280913 132.994187,133.280913 134,133.280913" id="Fill-17" fill="#0B0B09" opacity="0.25"></path>
                            <path d="M75.8054129,132.032925 C77.9399884,131.486107 78.691068,130.75391 78.3928802,129.556103 C78.1643943,128.636531 77.1338275,128.240479 75.8054129,128.563977 C75.8054129,129.707535 75.8054129,130.851759 75.8054129,132.032925 Z M78.2368162,132.698558 C79.6872939,134.512077 80.9942879,136.366531 83,137.596955 C82.1564381,138.249275 80.2571487,138.097844 79.5067492,137.229192 C78.3507191,135.8926 77.3099521,134.459492 76.2229438,133.065322 C76.1015606,132.909897 75.9978579,132.740493 75.8115331,132.467916 C75.8115331,133.889044 75.7649519,135.187362 75.8387338,136.479689 C75.8621944,136.89804 76.2008432,137.299749 76.4446296,137.812287 C75.2834994,137.912798 74.1641903,137.898487 73,137.723092 C73.844582,137.104719 73.7089184,136.244055 73.7143586,135.477911 C73.730339,133.125229 73.693618,130.770884 73.6307164,128.418536 C73.6222162,128.10236 73.345789,127.793506 73.192105,127.480991 C73.1417837,127.379482 73.0292408,127.265659 73.0503213,127.184119 C73.0714019,127.10391 73.2284859,127.005063 73.3247084,127.005729 C74.9302302,127.025698 76.5524124,126.931178 78.1371936,127.126874 C79.6723335,127.315914 80.5679168,128.346314 80.6882799,129.595376 C80.7991228,130.746256 80.0626636,131.835232 78.7424093,132.468915 C78.5941654,132.540138 78.4425215,132.605037 78.2368162,132.698558 Z" id="Fill-18" fill="#0B0B09" opacity="0.25"></path>
                            <path d="M111.505835,111.738621 C110.462654,111.732016 109.437547,111.67191 108.846214,112.47871 C108.448587,113.021309 108.49888,113.663314 108.946014,114.205254 C109.547955,114.936096 110.393894,115.284839 111.505835,115.23266 C111.505835,114.064898 111.505835,112.938747 111.505835,111.738621 Z M105,120.083694 C105.421202,120.023919 105.845153,119.974712 106.263605,119.901396 C107.288712,119.719759 108.367255,119.64215 109.323209,119.313222 C111.036698,118.725048 111.679502,117.617721 111.496405,115.954585 C109.95069,116.481333 108.561353,116.123673 107.274174,115.382923 C106.200346,114.764366 105.631802,113.877976 105.779537,112.781218 C105.939059,111.598925 106.739028,110.757119 108.09811,110.384928 C108.798279,110.193383 109.54599,110.059302 110.279557,110.03057 C111.67793,109.975419 113.081411,110.009765 114.482928,110.019672 C114.655809,110.021654 114.827905,110.107518 115,110.154084 C114.930455,110.291798 114.852265,110.425879 114.792935,110.566235 C114.59648,111.027924 114.260933,111.48631 114.240894,111.953613 C114.168206,113.596934 114.212212,115.243558 114.19846,116.88853 C114.180779,118.936407 112.915603,120.278871 110.519626,120.809582 C108.594358,121.236264 106.78657,120.894787 105.020039,120.29076 C105.013752,120.221408 105.00668,120.153046 105,120.083694 Z" id="Fill-19" fill="#0B0B09" opacity="0.25"></path>
                            <path d="M63.8615618,132.52705 C64.8458523,132.52705 65.7434687,132.52705 66.7017197,132.52705 C66.2389619,131.436388 65.7988955,130.401434 65.2970784,129.218821 C64.7870776,130.394387 64.3362234,131.433368 63.8615618,132.52705 Z M72,137.837734 C71.588577,138.070296 68.6011103,138.073988 67.9553324,137.709875 C69.026669,137.309518 68.4872807,136.685659 68.2659456,136.110461 C68.0866455,135.645336 67.8024437,135.20538 67.6804304,134.729851 C67.5219618,134.117067 67.1391822,133.986188 66.505308,134.017397 C65.591696,134.063037 64.6721321,134.050956 63.7570321,134.019075 C63.3340773,134.004309 63.1491974,134.138209 63.0320199,134.492926 C62.8568117,135.023491 62.6213409,135.537612 62.4078176,136.058109 C62.159327,136.662504 61.7497639,137.285691 62.7831574,137.795785 C61.4889976,138.032711 60.3060635,137.99546 59,137.913912 C59.1435889,137.685041 59.2060835,137.561209 59.2920136,137.452143 C59.6807451,136.959499 60.1952099,136.516523 60.4485364,135.97287 C61.5782757,133.549252 62.6399405,131.1008 63.7112771,128.654698 C63.8946691,128.235883 64.2309497,127.767402 63.5628523,127.41537 C63.6532463,127.280464 63.7388045,127.031793 63.8355224,127.028101 C64.6818039,126.997898 65.5325493,126.98179 66.3762269,127.033806 C66.5629668,127.045888 66.8010416,127.321741 66.8906916,127.521416 C68.111197,130.238003 69.2766475,132.974389 70.534352,135.674868 C70.8922082,136.443365 71.5026469,137.116555 72,137.837734 Z" id="Fill-20" fill="#0B0B09" opacity="0.25"></path>
                            <path d="M155.220169,129.206791 C154.725856,130.37715 154.268415,131.460716 153.805134,132.560093 C154.77076,132.560093 155.665197,132.560093 156.638855,132.560093 C156.165351,131.440195 155.707181,130.358648 155.220169,129.206791 Z M162,137.910306 C160.557219,137.910306 159.26923,137.910306 157.998399,137.910306 C157.97759,137.803665 157.963352,137.771034 157.971384,137.765651 C158.781488,137.211589 158.313095,136.591928 158.075795,135.987742 C157.977225,135.736446 157.857115,135.492551 157.749052,135.243946 C157.222612,134.039947 157.222612,134.039947 155.853576,134.039947 C155.179646,134.039947 154.503159,134.073924 153.832514,134.028845 C153.329074,133.994532 153.108933,134.172827 152.979696,134.598718 C152.828555,135.092563 152.642001,135.583044 152.407622,136.047958 C152.079783,136.69756 151.892499,137.295018 152.740206,137.836296 C151.48763,138.05227 150.284338,138.024684 149,137.924099 C151.018507,135.968566 151.406218,133.449553 152.536494,131.266273 C152.920554,130.523824 153.198012,129.735286 153.536802,128.971979 C153.8128,128.348954 154.26805,127.722228 153.18779,127.135535 C153.54666,127.06489 153.702912,127.012074 153.861355,127.007364 C154.26513,126.994244 154.669999,127.002654 155.074139,127.002654 C156.593221,127.002654 156.586284,127.005346 157.149597,128.310267 C158.226937,130.806069 159.282738,133.309271 160.417029,135.782197 C160.702154,136.404213 161.249403,136.924971 161.676177,137.492152 C161.749193,137.587692 161.823668,137.682222 162,137.910306 Z" id="Fill-21" fill="#0B0B09" opacity="0.25"></path>
                            <path d="M174,101.491967 C174.912875,100.534466 175.584393,99.7744601 176.317762,99.10437 C176.487037,98.9491574 176.962308,98.9727069 177.136233,99.1375534 C177.705443,99.6770508 178.19234,100.328408 178.725742,100.918751 C179.052665,101.280022 179.113121,101.612391 178.765735,102.002563 C178.215127,102.619667 177.700793,103.284405 177.116702,103.85548 C176.953937,104.014974 176.503778,104.05458 176.35078,103.912748 C175.600204,103.215897 174.905434,102.44037 174,101.491967" id="Fill-22" fill="#0B0B09" opacity="0.25"></path>
                            <path d="M174.012017,107 C173.231297,105.89443 172.61959,105.092153 172.080808,104.214611 C171.957266,104.01446 171.980859,103.444113 172.114268,103.233927 C172.545808,102.551517 173.067861,101.966117 173.540582,101.325522 C173.831422,100.930796 174.095665,100.868353 174.406237,101.286496 C174.89912,101.949949 175.432754,102.565455 175.890462,103.266263 C176.016149,103.458609 176.041029,103.994389 175.926495,104.180602 C175.371841,105.085463 174.7537,105.925094 174.012017,107" id="Fill-23" fill="#0B0B09" opacity="0.25"></path>
                            <path d="M146.941847,106 C146.226215,105.105571 145.62058,104.404728 145.087846,103.640476 C144.961457,103.458901 144.974398,102.966052 145.107689,102.786398 C145.561052,102.177303 146.06963,101.607597 146.617893,101.105142 C146.777497,100.959112 147.232155,100.967278 147.394347,101.11667 C147.942179,101.619606 148.451188,102.189792 148.904551,102.798407 C149.033529,102.971336 149.030941,103.465626 148.901963,103.640957 C148.350249,104.387435 147.72736,105.070025 146.941847,106" id="Fill-24" fill="#0B0B09" opacity="0.25"></path>
                            <path d="M92.2188702,106 C91.494074,105.19897 90.7389225,104.417772 90.0689786,103.580463 C89.9342442,103.411163 90.0103984,102.943895 90.1808134,102.760084 C90.7266739,102.170921 91.3215288,101.604975 91.9840171,101.129001 C92.2114146,100.965989 92.8211807,100.953413 93.0400575,101.114489 C95.6159866,103.008229 95.603738,103.018871 93.2919521,105.119641 C93.0847914,105.308289 92.9181042,105.532732 92.7317128,105.741213 C92.5607653,105.827314 92.3898178,105.913899 92.2188702,106" id="Fill-25" fill="#0B0B09" opacity="0.25"></path>
                            <path d="M143.525723,106 C142.669257,105.165384 141.982453,104.470921 141.263042,103.807981 C140.90945,103.482573 140.913017,103.243003 141.269666,102.925839 C141.86425,102.397233 142.434378,101.843893 142.996355,101.284734 C143.382554,100.901616 143.734108,100.90986 144.114703,101.280855 C144.682793,101.834679 145.288077,102.357466 145.816427,102.943297 C145.972333,103.116428 146.064552,103.57908 145.946349,103.701775 C145.196877,104.48159 144.380152,105.203211 143.525723,106" id="Fill-26" fill="#0B0B09" opacity="0.25"></path>
                            <path d="M180,103.394871 C179.159848,104.223122 178.472852,104.900288 177.784877,105.576957 C177.678695,105.68148 177.567132,105.782039 177.333729,106 C176.56991,105.231192 175.798263,104.489134 175.080929,103.698034 C174.962025,103.567258 174.978173,103.127868 175.102948,102.985203 C175.67887,102.327852 176.292959,101.698738 176.947661,101.122132 C177.106198,100.980952 177.580343,100.954203 177.721266,101.083988 C178.488999,101.793848 179.198015,102.568105 180,103.394871" id="Fill-27" fill="#0B0B09" opacity="0.25"></path>
                            <path d="M52,120.177532 C51.8604036,120.319491 51.7011528,120.501824 51.517208,120.665056 C49.5129662,122.443237 49.5321166,122.424569 47.5036847,120.731043 C46.9140536,120.237441 46.764378,119.903164 47.4784868,119.417811 C48.0106667,119.055749 48.4224006,118.563884 48.9505488,118.196179 C49.165235,118.046406 49.6817922,117.93527 49.8274361,118.042933 C50.5556557,118.578645 51.2102975,119.188158 51.8775382,119.782043 C51.95162,119.847596 51.9435567,119.982175 52,120.177532" id="Fill-28" fill="#0B0B09" opacity="0.25"></path>
                            <circle id="Oval-2" stroke="url(#linearGradient-3)" stroke-width="6" cx="109.5" cy="104.5" r="101.5"></circle>
                        </g>
                    </g>
                </g>
            </g>
        </g>
    </g>
</svg>