<?xml version="1.0" encoding="UTF-8"?>
<svg width="20px" height="19px" viewBox="0 0 20 19" version="1.1" xmlns="http://www.w3.org/2000/svg" xmlns:xlink="http://www.w3.org/1999/xlink">
    <!-- Generator: Sketch 51.1 (57501) - http://www.bohemiancoding.com/sketch -->
    <title>Star</title>
    <desc>Created with Sketch.</desc>
    <defs></defs>
    <g id="Page-1" stroke="none" stroke-width="1" fill="none" fill-rule="evenodd">
        <g id="Website-Final-2.0" transform="translate(-761.000000, -7349.000000)" fill="#FFFD00">
            <g id="Pricing-Plan-" transform="translate(-180.000000, 7113.000000)">
                <g id="Pro*" transform="translate(694.000000, 201.000000)">
                    <g id="Rectangle">
                        <path d="M262.445934,53.9689945 C262.234765,53.9689945 262.01334,53.9022144 261.788341,53.7706828 L257.460063,51.2392829 C257.342592,51.1706305 257.158459,51.1297512 256.967179,51.1297512 C256.776054,51.1297512 256.591766,51.1706305 256.47445,51.2392829 L252.146017,53.7706828 C251.921174,53.9022144 251.699904,53.9689945 251.488424,53.9689945 C251.208418,53.9689945 250.961044,53.8532216 250.791984,53.6427397 C250.652758,53.4692365 250.509337,53.1571803 250.617485,52.6553939 L251.677218,47.7395727 C251.738129,47.4573178 251.587249,46.9907938 251.372506,46.7982552 L247.637648,43.4469276 C247.106072,42.9697937 247.184076,42.5001492 247.24219,42.3204048 C247.30046,42.1405044 247.512562,41.7145477 248.221744,41.6426187 L253.204973,41.1356834 C253.491505,41.1065062 253.886496,40.8184783 254.002569,40.5538547 L256.022432,35.9514939 C256.310052,35.2964879 256.778851,35.2258072 256.967179,35.2258072 C257.155507,35.2258072 257.624462,35.2964879 257.911926,35.9514939 L259.931789,40.5538547 C260.047862,40.8184783 260.442853,41.1065062 260.72923,41.1356834 L265.71277,41.6426187 C266.421951,41.7145477 266.633898,42.1405044 266.692168,42.3204048 C266.750282,42.5001492 266.828286,42.9697937 266.296866,43.4469276 L262.561697,46.7982552 C262.347109,46.9907938 262.196384,47.4573178 262.25714,47.7395727 L263.316873,52.6553939 C263.425177,53.1571803 263.281756,53.4692365 263.142374,53.6427397 C262.97347,53.8532216 262.726095,53.9689945 262.445934,53.9689945" id="Star"></path>
                    </g>
                </g>
            </g>
        </g>
    </g>
</svg>